# WaveFront *.obj file (generated by Autodesk ATF)

mtllib Satellite_IBeam.mtl

g Body2

v 11.700501 -0.083784 0.000000
v 11.700501 -0.183784 0.000000
v 11.700501 -0.183784 10.000000
v 11.700501 -0.083784 10.000000
v 12.700501 -0.083784 0.000000
v 12.700501 -0.083784 10.000000
v 12.700501 1.566216 0.000000
v 12.700501 1.566216 10.000000
v 9.300501 1.566216 0.000000
v 9.300501 1.566216 10.000000
v 9.300501 -0.083784 0.000000
v 9.300501 -0.083784 10.000000
v 10.300501 -0.083784 0.000000
v 10.300501 -0.083784 10.000000
v 10.300501 -0.183784 0.000000
v 10.300501 -0.183784 10.000000
v 9.200501 -0.183784 0.000000
v 9.200501 -0.183784 10.000000
v 9.200501 3.416216 0.000000
v 9.200501 3.416216 10.000000
v 10.300501 3.416216 0.000000
v 10.300501 3.416216 10.000000
v 10.300501 3.316216 0.000000
v 10.300501 3.316216 10.000000
v 9.300501 3.316216 0.000000
v 9.300501 3.316216 10.000000
v 9.300501 1.666216 0.000000
v 9.300501 1.666216 10.000000
v 12.700501 1.666216 0.000000
v 12.700501 1.666216 10.000000
v 12.700501 3.316216 0.000000
v 12.700501 3.316216 10.000000
v 11.700501 3.316216 0.000000
v 11.700501 3.316216 10.000000
v 11.700501 3.416216 0.000000
v 11.700501 3.416216 10.000000
v 12.800501 3.416216 0.000000
v 12.800501 3.416216 10.000000
v 12.800501 -0.183784 0.000000
v 12.800501 -0.183784 10.000000
vt -0.000000 0.000000 0.000000
vt 10.000000 0.000000 0.000000
vt -0.000000 1000.000000 0.000000
vt 10.000000 1000.000000 0.000000
vt -0.000000 0.000000 0.000000
vt 100.000000 0.000000 0.000000
vt -0.000000 1000.000000 0.000000
vt 100.000000 1000.000000 0.000000
vt 0.000000 0.000000 0.000000
vt 165.000000 0.000000 0.000000
vt 0.000000 1000.000000 0.000000
vt 165.000000 1000.000000 0.000000
vt 0.000000 0.000000 0.000000
vt 340.000000 0.000000 0.000000
vt 0.000000 1000.000000 0.000000
vt 340.000000 1000.000000 0.000000
vt 0.000000 0.000000 0.000000
vt 165.000000 0.000000 0.000000
vt 0.000000 1000.000000 0.000000
vt 165.000000 1000.000000 0.000000
vt 0.000000 0.000000 0.000000
vt 100.000000 0.000000 0.000000
vt 0.000000 1000.000000 0.000000
vt 100.000000 1000.000000 0.000000
vt 0.000000 0.000000 0.000000
vt 10.000000 0.000000 0.000000
vt 0.000000 1000.000000 0.000000
vt 10.000000 1000.000000 0.000000
vt 0.000000 0.000000 0.000000
vt 110.000000 0.000000 0.000000
vt 0.000000 1000.000000 0.000000
vt 110.000000 1000.000000 0.000000
vt 0.000000 0.000000 0.000000
vt 360.000000 0.000000 0.000000
vt 0.000000 1000.000000 0.000000
vt 360.000000 1000.000000 0.000000
vt -0.000000 0.000000 0.000000
vt 110.000000 0.000000 0.000000
vt -0.000000 1000.000000 0.000000
vt 110.000000 1000.000000 0.000000
vt 0.000000 0.000000 0.000000
vt 10.000000 0.000000 0.000000
vt 0.000000 1000.000000 0.000000
vt 10.000000 1000.000000 0.000000
vt 0.000000 0.000000 0.000000
vt 100.000000 0.000000 0.000000
vt 0.000000 1000.000000 0.000000
vt 100.000000 1000.000000 0.000000
vt -0.000000 0.000000 0.000000
vt 165.000000 0.000000 0.000000
vt -0.000000 1000.000000 0.000000
vt 165.000000 1000.000000 0.000000
vt -0.000000 0.000000 0.000000
vt 340.000000 0.000000 0.000000
vt -0.000000 1000.000000 0.000000
vt 340.000000 1000.000000 0.000000
vt 0.000000 0.000000 0.000000
vt 165.000000 0.000000 0.000000
vt 0.000000 1000.000000 0.000000
vt 165.000000 1000.000000 0.000000
vt 0.000000 0.000000 0.000000
vt 100.000000 0.000000 0.000000
vt 0.000000 1000.000000 0.000000
vt 100.000000 1000.000000 0.000000
vt 0.000000 0.000000 0.000000
vt 10.000000 0.000000 0.000000
vt 0.000000 1000.000000 0.000000
vt 10.000000 1000.000000 0.000000
vt 0.000000 0.000000 0.000000
vt 110.000000 0.000000 0.000000
vt 0.000000 1000.000000 0.000000
vt 110.000000 1000.000000 0.000000
vt 0.000000 0.000000 0.000000
vt 360.000000 0.000000 0.000000
vt 0.000000 1000.000000 0.000000
vt 360.000000 1000.000000 0.000000
vt 0.000000 0.000000 0.000000
vt 110.000000 0.000000 0.000000
vt 0.000000 1000.000000 0.000000
vt 110.000000 1000.000000 0.000000
vt 70.000000 -170.000000 0.000000
vt 70.000000 -180.000000 0.000000
vt 170.000000 -170.000000 0.000000
vt 180.000000 -180.000000 0.000000
vt 170.000000 -5.000000 0.000000
vt 170.000000 5.000000 0.000000
vt -170.000000 5.000000 0.000000
vt 180.000000 180.000000 0.000000
vt 170.000000 170.000000 0.000000
vt 70.000000 180.000000 0.000000
vt 70.000000 170.000000 0.000000
vt -170.000000 170.000000 0.000000
vt -180.000000 180.000000 0.000000
vt -180.000000 -180.000000 0.000000
vt -170.000000 -5.000000 0.000000
vt -170.000000 -170.000000 0.000000
vt -70.000000 -180.000000 0.000000
vt -70.000000 -170.000000 0.000000
vt -70.000000 170.000000 0.000000
vt -70.000000 180.000000 0.000000
vt -70.000000 -180.000000 0.000000
vt -170.000000 -170.000000 0.000000
vt -180.000000 -180.000000 0.000000
vt -170.000000 -5.000000 0.000000
vt -170.000000 5.000000 0.000000
vt 170.000000 -5.000000 0.000000
vt 170.000000 5.000000 0.000000
vt 180.000000 -180.000000 0.000000
vt 180.000000 180.000000 0.000000
vt -70.000000 -170.000000 0.000000
vt 170.000000 -170.000000 0.000000
vt 70.000000 -180.000000 0.000000
vt 70.000000 -170.000000 0.000000
vt 170.000000 170.000000 0.000000
vt 70.000000 180.000000 0.000000
vt 70.000000 170.000000 0.000000
vt -180.000000 180.000000 0.000000
vt -170.000000 170.000000 0.000000
vt -70.000000 180.000000 0.000000
vt -70.000000 170.000000 0.000000
vn -100.000000 0.000000 0.000000
vn -100.000000 0.000000 0.000000
vn -100.000000 0.000000 0.000000
vn -100.000000 0.000000 0.000000
vn 0.000000 100.000000 0.000000
vn 0.000000 100.000000 0.000000
vn 0.000000 100.000000 0.000000
vn 0.000000 100.000000 0.000000
vn -100.000000 0.000000 0.000000
vn -100.000000 0.000000 0.000000
vn -100.000000 0.000000 0.000000
vn -100.000000 0.000000 0.000000
vn 0.000000 -100.000000 0.000000
vn 0.000000 -100.000000 0.000000
vn 0.000000 -100.000000 0.000000
vn 0.000000 -100.000000 0.000000
vn 100.000000 -0.000000 0.000000
vn 100.000000 -0.000000 0.000000
vn 100.000000 -0.000000 0.000000
vn 100.000000 -0.000000 0.000000
vn 0.000000 100.000000 0.000000
vn 0.000000 100.000000 0.000000
vn 0.000000 100.000000 0.000000
vn 0.000000 100.000000 0.000000
vn 100.000000 0.000000 0.000000
vn 100.000000 0.000000 0.000000
vn 100.000000 0.000000 0.000000
vn 100.000000 0.000000 0.000000
vn 0.000000 -100.000000 0.000000
vn 0.000000 -100.000000 0.000000
vn 0.000000 -100.000000 0.000000
vn 0.000000 -100.000000 0.000000
vn -100.000000 0.000000 0.000000
vn -100.000000 0.000000 0.000000
vn -100.000000 0.000000 0.000000
vn -100.000000 0.000000 0.000000
vn 0.000000 100.000000 0.000000
vn 0.000000 100.000000 0.000000
vn 0.000000 100.000000 0.000000
vn 0.000000 100.000000 0.000000
vn 100.000000 0.000000 0.000000
vn 100.000000 0.000000 0.000000
vn 100.000000 0.000000 0.000000
vn 100.000000 0.000000 0.000000
vn 0.000000 -100.000000 0.000000
vn 0.000000 -100.000000 0.000000
vn 0.000000 -100.000000 0.000000
vn 0.000000 -100.000000 0.000000
vn 100.000000 -0.000000 0.000000
vn 100.000000 -0.000000 0.000000
vn 100.000000 -0.000000 0.000000
vn 100.000000 -0.000000 0.000000
vn 0.000000 100.000000 0.000000
vn 0.000000 100.000000 0.000000
vn 0.000000 100.000000 0.000000
vn 0.000000 100.000000 0.000000
vn -100.000000 0.000000 0.000000
vn -100.000000 0.000000 0.000000
vn -100.000000 0.000000 0.000000
vn -100.000000 0.000000 0.000000
vn 0.000000 -100.000000 0.000000
vn 0.000000 -100.000000 0.000000
vn 0.000000 -100.000000 0.000000
vn 0.000000 -100.000000 0.000000
vn -100.000000 0.000000 0.000000
vn -100.000000 0.000000 0.000000
vn -100.000000 0.000000 0.000000
vn -100.000000 0.000000 0.000000
vn 0.000000 100.000000 0.000000
vn 0.000000 100.000000 0.000000
vn 0.000000 100.000000 0.000000
vn 0.000000 100.000000 0.000000
vn 100.000000 0.000000 0.000000
vn 100.000000 0.000000 0.000000
vn 100.000000 0.000000 0.000000
vn 100.000000 0.000000 0.000000
vn 0.000000 -100.000000 0.000000
vn 0.000000 -100.000000 0.000000
vn 0.000000 -100.000000 0.000000
vn 0.000000 -100.000000 0.000000
vn 0.000000 0.000000 100.000000
vn 0.000000 0.000000 100.000000
vn 0.000000 0.000000 100.000000
vn 0.000000 0.000000 100.000000
vn 0.000000 0.000000 100.000000
vn 0.000000 0.000000 100.000000
vn 0.000000 0.000000 100.000000
vn 0.000000 0.000000 100.000000
vn 0.000000 0.000000 100.000000
vn 0.000000 0.000000 100.000000
vn 0.000000 0.000000 100.000000
vn 0.000000 0.000000 100.000000
vn 0.000000 0.000000 100.000000
vn 0.000000 0.000000 100.000000
vn 0.000000 0.000000 100.000000
vn 0.000000 0.000000 100.000000
vn 0.000000 0.000000 100.000000
vn 0.000000 0.000000 100.000000
vn 0.000000 0.000000 100.000000
vn 0.000000 0.000000 100.000000
vn -0.000000 0.000000 -100.000000
vn -0.000000 0.000000 -100.000000
vn -0.000000 0.000000 -100.000000
vn -0.000000 0.000000 -100.000000
vn -0.000000 0.000000 -100.000000
vn -0.000000 0.000000 -100.000000
vn -0.000000 0.000000 -100.000000
vn -0.000000 0.000000 -100.000000
vn -0.000000 0.000000 -100.000000
vn -0.000000 0.000000 -100.000000
vn -0.000000 0.000000 -100.000000
vn -0.000000 0.000000 -100.000000
vn -0.000000 0.000000 -100.000000
vn -0.000000 0.000000 -100.000000
vn -0.000000 0.000000 -100.000000
vn -0.000000 0.000000 -100.000000
vn -0.000000 0.000000 -100.000000
vn -0.000000 0.000000 -100.000000
vn -0.000000 0.000000 -100.000000
vn -0.000000 0.000000 -100.000000
usemtl Steel_-_Satin
f 1/1/1 2/2/2 4/3/3
f 4/3/3 2/2/2 3/4/4
f 5/5/5 1/6/6 6/7/7
f 6/7/7 1/6/6 4/8/8
f 7/9/9 5/10/10 8/11/11
f 8/11/11 5/10/10 6/12/12
f 9/13/13 7/14/14 10/15/15
f 10/15/15 7/14/14 8/16/16
f 11/17/17 9/18/18 12/19/19
f 12/19/19 9/18/18 10/20/20
f 13/21/21 11/22/22 14/23/23
f 14/23/23 11/22/22 12/24/24
f 15/25/25 13/26/26 16/27/27
f 16/27/27 13/26/26 14/28/28
f 17/29/29 15/30/30 18/31/31
f 18/31/31 15/30/30 16/32/32
f 19/33/33 17/34/34 20/35/35
f 20/35/35 17/34/34 18/36/36
f 21/37/37 19/38/38 22/39/39
f 22/39/39 19/38/38 20/40/40
f 23/41/41 21/42/42 24/43/43
f 24/43/43 21/42/42 22/44/44
f 25/45/45 23/46/46 26/47/47
f 26/47/47 23/46/46 24/48/48
f 27/49/49 25/50/50 28/51/51
f 28/51/51 25/50/50 26/52/52
f 29/53/53 27/54/54 30/55/55
f 30/55/55 27/54/54 28/56/56
f 31/57/57 29/58/58 32/59/59
f 32/59/59 29/58/58 30/60/60
f 33/61/61 31/62/62 34/63/63
f 34/63/63 31/62/62 32/64/64
f 35/65/65 33/66/66 36/67/67
f 36/67/67 33/66/66 34/68/68
f 37/69/69 35/70/70 38/71/71
f 38/71/71 35/70/70 36/72/72
f 39/73/73 37/74/74 40/75/75
f 40/75/75 37/74/74 38/76/76
f 2/77/77 39/78/78 3/79/79
f 3/79/79 39/78/78 40/80/80
f 4/81/81 3/82/82 6/83/83
f 6/83/83 3/82/82 40/84/84
f 6/83/83 40/84/84 8/85/85
f 8/85/85 40/84/84 30/86/86
f 8/85/85 30/86/86 28/87/87
f 40/84/84 38/88/88 30/86/86
f 30/86/86 38/88/88 32/89/89
f 32/89/89 38/88/88 36/90/90
f 32/89/89 36/90/90 34/91/91
f 26/92/92 20/93/93 28/87/87
f 28/87/87 20/93/93 18/94/94
f 28/87/87 18/94/94 10/95/95
f 10/95/95 18/94/94 12/96/96
f 12/96/96 18/94/94 16/97/97
f 12/96/96 16/97/97 14/98/98
f 24/99/99 22/100/100 26/92/92
f 26/92/92 22/100/100 20/93/93
f 10/95/95 8/85/85 28/87/87
f 2/101/101 5/102/102 39/103/103
f 39/103/103 5/102/102 7/104/104
f 39/103/103 7/104/104 29/105/105
f 29/105/105 7/104/104 9/106/106
f 29/105/105 9/106/106 27/107/107
f 27/107/107 9/106/106 17/108/108
f 27/107/107 17/108/108 19/109/109
f 2/101/101 1/110/110 5/102/102
f 9/106/106 11/111/111 17/108/108
f 17/108/108 11/111/111 15/112/112
f 15/112/112 11/111/111 13/113/113
f 27/107/107 19/109/109 25/114/114
f 25/114/114 19/109/109 21/115/115
f 25/114/114 21/115/115 23/116/116
f 39/103/103 29/105/105 37/117/117
f 37/117/117 29/105/105 31/118/118
f 37/117/117 31/118/118 35/119/119
f 35/119/119 31/118/118 33/120/120
# 40 vertices
# 120 texture params
# 120 normals
# 76 facets

# 1 groups
